<svg xmlns="http://www.w3.org/2000/svg" width="179" height="51" fill="none">
  <path fill="#fff" d="M164.629 16.864h3.07v4.71l-.188 2.086h.188c.328-.546.797-.992 1.406-1.335.625-.36 1.32-.54 2.086-.54 1.484 0 2.578.438 3.281 1.313.719.875 1.078 2.07 1.078 3.586v6.96h-3.07V27.06c0-.797-.187-1.399-.562-1.805-.375-.422-.899-.633-1.571-.633-.422 0-.797.094-1.125.282a2.49 2.49 0 0 0-.843.726 3.77 3.77 0 0 0-.516 1.102 5.05 5.05 0 0 0-.164 1.312v5.602h-3.07V16.864Zm-1.17 13.851a6.471 6.471 0 0 1-2.11 2.39c-.89.61-2.008.915-3.351.915a6.627 6.627 0 0 1-2.461-.445 6.019 6.019 0 0 1-1.922-1.29 6.225 6.225 0 0 1-1.266-1.921c-.297-.75-.445-1.57-.445-2.461 0-.89.148-1.711.445-2.461.313-.75.734-1.39 1.266-1.922a5.711 5.711 0 0 1 1.922-1.266 6.335 6.335 0 0 1 2.461-.469c1.328 0 2.445.305 3.351.915a5.415 5.415 0 0 1 1.992 2.367l-2.812 1.172c-.266-.532-.61-.93-1.031-1.196-.407-.28-.922-.421-1.547-.421-.407 0-.789.078-1.149.234a3.106 3.106 0 0 0-.961.656 3.126 3.126 0 0 0-.633 1.031c-.156.407-.234.86-.234 1.36 0 .5.078.953.234 1.36.157.405.368.75.633 1.03.282.282.602.5.961.657.36.156.742.234 1.149.234.64 0 1.179-.14 1.617-.422.453-.297.812-.719 1.078-1.265l2.813 1.218ZM151 30.88a6.397 6.397 0 0 1-2.156 2.273c-.891.578-1.984.867-3.281.867a6.566 6.566 0 0 1-2.438-.445 6.03 6.03 0 0 1-1.922-1.29 6.047 6.047 0 0 1-1.289-1.921 6.646 6.646 0 0 1-.445-2.461c0-.828.149-1.61.445-2.344a5.836 5.836 0 0 1 1.243-1.945 5.945 5.945 0 0 1 1.875-1.336 5.85 5.85 0 0 1 2.414-.492c.922 0 1.742.156 2.461.468.718.297 1.32.719 1.804 1.266a5.318 5.318 0 0 1 1.102 1.898 7.38 7.38 0 0 1 .375 2.391v.281c-.016.094-.024.18-.024.258a1.368 1.368 0 0 0-.023.258h-8.648c.062.469.187.875.375 1.219.203.328.445.609.726.843.297.22.617.383.961.492a3.98 3.98 0 0 0 1.055.141c.703 0 1.281-.156 1.734-.469a3.571 3.571 0 0 0 1.102-1.218L151 30.879Zm-2.789-4.454a1.857 1.857 0 0 0-.211-.68 2.142 2.142 0 0 0-.515-.703 2.53 2.53 0 0 0-.844-.539c-.328-.14-.727-.21-1.195-.21-.657 0-1.235.187-1.735.562-.5.375-.851.898-1.054 1.57h5.554Zm-15.232 7.219V19.864h-4.688v-3h12.539v3h-4.687v13.78h-3.164Zm-5.383-2.765a6.397 6.397 0 0 1-2.156 2.273c-.891.578-1.985.867-3.282.867a6.56 6.56 0 0 1-2.437-.445 6.019 6.019 0 0 1-1.922-1.29 6.014 6.014 0 0 1-1.289-1.921c-.297-.75-.445-1.57-.445-2.461 0-.828.148-1.61.445-2.344a5.85 5.85 0 0 1 1.242-1.945 5.945 5.945 0 0 1 1.875-1.336 5.85 5.85 0 0 1 2.414-.492c.922 0 1.742.156 2.461.468a4.84 4.84 0 0 1 1.805 1.266 5.33 5.33 0 0 1 1.101 1.898 7.38 7.38 0 0 1 .375 2.391v.281c-.015.094-.023.18-.023.258a1.287 1.287 0 0 0-.024.258h-8.648c.063.469.188.875.375 1.219.203.328.445.609.727.843.296.22.617.383.961.492.343.094.695.141 1.054.141.703 0 1.281-.156 1.735-.469a3.568 3.568 0 0 0 1.101-1.218l2.555 1.265Zm-2.789-4.454a1.876 1.876 0 0 0-.211-.68 2.145 2.145 0 0 0-.516-.703 2.53 2.53 0 0 0-.844-.539c-.328-.14-.726-.21-1.195-.21-.656 0-1.234.187-1.734.562-.5.375-.852.898-1.055 1.57h5.555Zm-16.218-4.266h2.883v1.594h.188c.14-.281.328-.539.562-.773.234-.235.492-.438.773-.61.297-.171.61-.304.938-.398.344-.094.68-.14 1.008-.14.406 0 .75.039 1.031.117.297.078.547.18.75.304l-.82 2.79a2.526 2.526 0 0 0-.633-.212 3.037 3.037 0 0 0-.82-.093c-.422 0-.805.086-1.149.258-.344.156-.64.382-.89.68a3.567 3.567 0 0 0-.563 1.054c-.125.39-.187.82-.187 1.289v5.625h-3.071V22.16Zm-4.81 9.985h-.187a3.991 3.991 0 0 1-1.453 1.383c-.61.328-1.305.492-2.086.492-1.453 0-2.54-.445-3.258-1.336-.703-.89-1.055-2.078-1.055-3.562V22.16h3.07v6.587c0 .828.18 1.445.54 1.851.375.39.914.586 1.617.586.422 0 .789-.086 1.101-.258a2.63 2.63 0 0 0 .821-.726 3.14 3.14 0 0 0 .515-1.078 4.68 4.68 0 0 0 .188-1.337V22.16h3.07v11.485h-2.883v-1.5Zm-15.383-7.36H86.38V22.16h2.016v-3.515h3.07v3.515h2.813v2.625h-2.813v4.454c0 .265.024.515.07.75.063.218.172.406.329.562.218.25.53.375.937.375.266 0 .477-.023.633-.07.156-.063.305-.14.445-.235l.867 2.696c-.36.172-.75.297-1.172.375-.406.093-.859.14-1.359.14a4.534 4.534 0 0 1-1.57-.257 3.485 3.485 0 0 1-1.149-.75c-.734-.704-1.101-1.704-1.101-3v-5.04Zm-6.19 7.36h-.188a3.984 3.984 0 0 1-1.453 1.383c-.61.328-1.305.492-2.086.492-1.453 0-2.539-.445-3.258-1.336-.703-.89-1.054-2.078-1.054-3.562V22.16h3.07v6.587c0 .828.18 1.445.54 1.851.374.39.913.586 1.616.586.422 0 .79-.086 1.102-.258.328-.187.601-.43.82-.726.235-.313.406-.672.516-1.078a4.68 4.68 0 0 0 .187-1.337V22.16h3.07v11.485h-2.882v-1.5ZM62.727 16.864h10.64v3h-7.476v4.078h6.727v3H65.89v6.703h-3.164V16.864Z"/>
  <path fill="#FFD11A" d="M33.333 50.5v-8.333a8.322 8.322 0 0 0 8.334-8.334H50C50 43.056 42.528 50.5 33.333 50.5Zm0 0v-8.333A8.322 8.322 0 0 1 25 33.833h-8.333c0 9.223 7.472 16.667 16.666 16.667ZM0 33.833h8.333a8.322 8.322 0 0 0 8.334 8.334V50.5C7.472 50.5 0 43.056 0 33.833Zm0 0h8.333a8.322 8.322 0 0 1 8.334-8.333v-8.333C7.472 17.167 0 24.639 0 33.833ZM16.667.5v8.333a8.322 8.322 0 0 0-8.334 8.334H0C0 7.972 7.472.5 16.667.5Zm0 0v8.333A8.322 8.322 0 0 1 25 17.167h8.333C33.333 7.972 25.861.5 16.667.5ZM50 17.167h-8.333a8.322 8.322 0 0 0-8.334-8.334V.5C42.528.5 50 7.972 50 17.167Zm0 0h-8.333a8.322 8.322 0 0 1-8.334 8.333v8.333C42.528 33.833 50 26.39 50 17.167Z"/>
</svg>
