<svg xmlns="http://www.w3.org/2000/svg" width="24" height="24" fill="none">
  <path fill="#fff" d="M21.06 7.18v.62c.02 6.4-4.69 13.8-13.3 13.8-2.53 0-5.02-.76-7.16-2.18a9.17 9.17 0 0 0 6.92-2.02 4.7 4.7 0 0 1-4.37-3.36c.7.14 1.42.11 2.11-.1a4.8 4.8 0 0 1-3.75-4.73v-.06c.65.37 1.38.58 2.12.6a4.97 4.97 0 0 1-1.44-6.47 13.15 13.15 0 0 0 9.64 5.07 4.98 4.98 0 0 1 1.35-4.63 4.58 4.58 0 0 1 6.62.2 9.1 9.1 0 0 0 2.97-1.17 4.86 4.86 0 0 1-2.05 2.67 9.36 9.36 0 0 0 2.68-.75 9.77 9.77 0 0 1-2.34 2.51Z"/>
</svg>
